<svg xmlns="http://www.w3.org/2000/svg" viewBox="0 0 1024 1024" width="1024" height="1024">
  <defs>
    <clipPath id="sq"><path d="M972.00,512.00 L971.94,616.40 L971.78,649.75 L971.50,673.97 L971.11,693.67 L970.61,710.56 L970.00,725.48 L969.28,738.94 L968.44,751.25 L967.50,762.62 L966.44,773.21 L965.26,783.13 L963.97,792.47 L962.57,801.30 L961.05,809.68 L959.41,817.65 L957.66,825.25 L955.79,832.51 L953.80,839.46 L951.69,846.11 L949.45,852.50 L947.09,858.63 L944.61,864.52 L942.00,870.18 L939.26,875.62 L936.40,880.87 L933.39,885.91 L930.26,890.77 L926.98,895.44 L923.57,899.94 L920.01,904.28 L916.31,908.44 L912.45,912.45 L908.44,916.31 L904.28,920.01 L899.94,923.57 L895.44,926.98 L890.77,930.26 L885.91,933.39 L880.87,936.40 L875.62,939.26 L870.18,942.00 L864.52,944.61 L858.63,947.09 L852.50,949.45 L846.11,951.69 L839.46,953.80 L832.51,955.79 L825.25,957.66 L817.65,959.41 L809.68,961.05 L801.30,962.57 L792.47,963.97 L783.13,965.26 L773.21,966.44 L762.62,967.50 L751.25,968.44 L738.94,969.28 L725.48,970.00 L710.56,970.61 L693.67,971.11 L673.97,971.50 L649.75,971.78 L616.40,971.94 L512.00,972.00 L407.60,971.94 L374.25,971.78 L350.03,971.50 L330.33,971.11 L313.44,970.61 L298.52,970.00 L285.06,969.28 L272.75,968.44 L261.38,967.50 L250.79,966.44 L240.87,965.26 L231.53,963.97 L222.70,962.57 L214.32,961.05 L206.35,959.41 L198.75,957.66 L191.49,955.79 L184.54,953.80 L177.89,951.69 L171.50,949.45 L165.37,947.09 L159.48,944.61 L153.82,942.00 L148.38,939.26 L143.13,936.40 L138.09,933.39 L133.23,930.26 L128.56,926.98 L124.06,923.57 L119.72,920.01 L115.56,916.31 L111.55,912.45 L107.69,908.44 L103.99,904.28 L100.43,899.94 L97.02,895.44 L93.74,890.77 L90.61,885.91 L87.60,880.87 L84.74,875.62 L82.00,870.18 L79.39,864.52 L76.91,858.63 L74.55,852.50 L72.31,846.11 L70.20,839.46 L68.21,832.51 L66.34,825.25 L64.59,817.65 L62.95,809.68 L61.43,801.30 L60.03,792.47 L58.74,783.13 L57.56,773.21 L56.50,762.62 L55.56,751.25 L54.72,738.94 L54.00,725.48 L53.39,710.56 L52.89,693.67 L52.50,673.97 L52.22,649.75 L52.06,616.40 L52.00,512.00 L52.06,407.60 L52.22,374.25 L52.50,350.03 L52.89,330.33 L53.39,313.44 L54.00,298.52 L54.72,285.06 L55.56,272.75 L56.50,261.38 L57.56,250.79 L58.74,240.87 L60.03,231.53 L61.43,222.70 L62.95,214.32 L64.59,206.35 L66.34,198.75 L68.21,191.49 L70.20,184.54 L72.31,177.89 L74.55,171.50 L76.91,165.37 L79.39,159.48 L82.00,153.82 L84.74,148.38 L87.60,143.13 L90.61,138.09 L93.74,133.23 L97.02,128.56 L100.43,124.06 L103.99,119.72 L107.69,115.56 L111.55,111.55 L115.56,107.69 L119.72,103.99 L124.06,100.43 L128.56,97.02 L133.23,93.74 L138.09,90.61 L143.13,87.60 L148.38,84.74 L153.82,82.00 L159.48,79.39 L165.37,76.91 L171.50,74.55 L177.89,72.31 L184.54,70.20 L191.49,68.21 L198.75,66.34 L206.35,64.59 L214.32,62.95 L222.70,61.43 L231.53,60.03 L240.87,58.74 L250.79,57.56 L261.38,56.50 L272.75,55.56 L285.06,54.72 L298.52,54.00 L313.44,53.39 L330.33,52.89 L350.03,52.50 L374.25,52.22 L407.60,52.06 L512.00,52.00 L616.40,52.06 L649.75,52.22 L673.97,52.50 L693.67,52.89 L710.56,53.39 L725.48,54.00 L738.94,54.72 L751.25,55.56 L762.62,56.50 L773.21,57.56 L783.13,58.74 L792.47,60.03 L801.30,61.43 L809.68,62.95 L817.65,64.59 L825.25,66.34 L832.51,68.21 L839.46,70.20 L846.11,72.31 L852.50,74.55 L858.63,76.91 L864.52,79.39 L870.18,82.00 L875.62,84.74 L880.87,87.60 L885.91,90.61 L890.77,93.74 L895.44,97.02 L899.94,100.43 L904.28,103.99 L908.44,107.69 L912.45,111.55 L916.31,115.56 L920.01,119.72 L923.57,124.06 L926.98,128.56 L930.26,133.23 L933.39,138.09 L936.40,143.13 L939.26,148.38 L942.00,153.82 L944.61,159.48 L947.09,165.37 L949.45,171.50 L951.69,177.89 L953.80,184.54 L955.79,191.49 L957.66,198.75 L959.41,206.35 L961.05,214.32 L962.57,222.70 L963.97,231.53 L965.26,240.87 L966.44,250.79 L967.50,261.38 L968.44,272.75 L969.28,285.06 L970.00,298.52 L970.61,313.44 L971.11,330.33 L971.50,350.03 L971.78,374.25 L971.94,407.60 L972.00,512.00Z"></path></clipPath>
  </defs>
  <path d="M972.00,512.00 L971.94,616.40 L971.78,649.75 L971.50,673.97 L971.11,693.67 L970.61,710.56 L970.00,725.48 L969.28,738.94 L968.44,751.25 L967.50,762.62 L966.44,773.21 L965.26,783.13 L963.97,792.47 L962.57,801.30 L961.05,809.68 L959.41,817.65 L957.66,825.25 L955.79,832.51 L953.80,839.46 L951.69,846.11 L949.45,852.50 L947.09,858.63 L944.61,864.52 L942.00,870.18 L939.26,875.62 L936.40,880.87 L933.39,885.91 L930.26,890.77 L926.98,895.44 L923.57,899.94 L920.01,904.28 L916.31,908.44 L912.45,912.45 L908.44,916.31 L904.28,920.01 L899.94,923.57 L895.44,926.98 L890.77,930.26 L885.91,933.39 L880.87,936.40 L875.62,939.26 L870.18,942.00 L864.52,944.61 L858.63,947.09 L852.50,949.45 L846.11,951.69 L839.46,953.80 L832.51,955.79 L825.25,957.66 L817.65,959.41 L809.68,961.05 L801.30,962.57 L792.47,963.97 L783.13,965.26 L773.21,966.44 L762.62,967.50 L751.25,968.44 L738.94,969.28 L725.48,970.00 L710.56,970.61 L693.67,971.11 L673.97,971.50 L649.75,971.78 L616.40,971.94 L512.00,972.00 L407.60,971.94 L374.25,971.78 L350.03,971.50 L330.33,971.11 L313.44,970.61 L298.52,970.00 L285.06,969.28 L272.75,968.44 L261.38,967.50 L250.79,966.44 L240.87,965.26 L231.53,963.97 L222.70,962.57 L214.32,961.05 L206.35,959.41 L198.75,957.66 L191.49,955.79 L184.54,953.80 L177.89,951.69 L171.50,949.45 L165.37,947.09 L159.48,944.61 L153.82,942.00 L148.38,939.26 L143.13,936.40 L138.09,933.39 L133.23,930.26 L128.56,926.98 L124.06,923.57 L119.72,920.01 L115.56,916.31 L111.55,912.45 L107.69,908.44 L103.99,904.28 L100.43,899.94 L97.02,895.44 L93.74,890.77 L90.61,885.91 L87.60,880.87 L84.74,875.62 L82.00,870.18 L79.39,864.52 L76.91,858.63 L74.55,852.50 L72.31,846.11 L70.20,839.46 L68.21,832.51 L66.34,825.25 L64.59,817.65 L62.95,809.68 L61.43,801.30 L60.03,792.47 L58.74,783.13 L57.56,773.21 L56.50,762.62 L55.56,751.25 L54.72,738.94 L54.00,725.48 L53.39,710.56 L52.89,693.67 L52.50,673.97 L52.22,649.75 L52.06,616.40 L52.00,512.00 L52.06,407.60 L52.22,374.25 L52.50,350.03 L52.89,330.33 L53.39,313.44 L54.00,298.52 L54.72,285.06 L55.56,272.75 L56.50,261.38 L57.56,250.79 L58.74,240.87 L60.03,231.53 L61.43,222.70 L62.95,214.32 L64.59,206.35 L66.34,198.75 L68.21,191.49 L70.20,184.54 L72.31,177.89 L74.55,171.50 L76.91,165.37 L79.39,159.48 L82.00,153.82 L84.74,148.38 L87.60,143.13 L90.61,138.09 L93.74,133.23 L97.02,128.56 L100.43,124.06 L103.99,119.72 L107.69,115.56 L111.55,111.55 L115.56,107.69 L119.72,103.99 L124.06,100.43 L128.56,97.02 L133.23,93.74 L138.09,90.61 L143.13,87.60 L148.38,84.74 L153.82,82.00 L159.48,79.39 L165.37,76.91 L171.50,74.55 L177.89,72.31 L184.54,70.20 L191.49,68.21 L198.75,66.34 L206.35,64.59 L214.32,62.95 L222.70,61.43 L231.53,60.03 L240.87,58.74 L250.79,57.56 L261.38,56.50 L272.75,55.56 L285.06,54.72 L298.52,54.00 L313.44,53.39 L330.33,52.89 L350.03,52.50 L374.25,52.22 L407.60,52.06 L512.00,52.00 L616.40,52.06 L649.75,52.22 L673.97,52.50 L693.67,52.89 L710.56,53.39 L725.48,54.00 L738.94,54.72 L751.25,55.56 L762.62,56.50 L773.21,57.56 L783.13,58.74 L792.47,60.03 L801.30,61.43 L809.68,62.95 L817.65,64.59 L825.25,66.34 L832.51,68.21 L839.46,70.20 L846.11,72.31 L852.50,74.55 L858.63,76.91 L864.52,79.39 L870.18,82.00 L875.62,84.74 L880.87,87.60 L885.91,90.61 L890.77,93.74 L895.44,97.02 L899.94,100.43 L904.28,103.99 L908.44,107.69 L912.45,111.55 L916.31,115.56 L920.01,119.72 L923.57,124.06 L926.98,128.56 L930.26,133.23 L933.39,138.09 L936.40,143.13 L939.26,148.38 L942.00,153.82 L944.61,159.48 L947.09,165.37 L949.45,171.50 L951.69,177.89 L953.80,184.54 L955.79,191.49 L957.66,198.75 L959.41,206.35 L961.05,214.32 L962.57,222.70 L963.97,231.53 L965.26,240.87 L966.44,250.79 L967.50,261.38 L968.44,272.75 L969.28,285.06 L970.00,298.52 L970.61,313.44 L971.11,330.33 L971.50,350.03 L971.78,374.25 L971.94,407.60 L972.00,512.00Z" fill="#F4F1EA"></path>
  <g clip-path="url(#sq)">
    <path d="M 512 200 L 800 280 L 800 540 Q 800 720 512 824 Q 224 720 224 540 L 224 280 Z" fill="#0E1014" opacity="0.06"></path>
    <path d="M374.411 739.937L374.411 739.937Q328.269 739.937 295.046 720.821Q261.823 701.705 244.025 667.559Q226.228 633.414 226.228 588.062L226.228 588.062Q226.228 542.447 244.025 508.301Q261.823 474.156 295.046 455.040Q328.269 435.923 374.411 435.923L374.411 435.923Q402.624 435.923 426.091 443.306Q449.558 450.689 467.224 464.268Q484.890 477.847 495.832 497.227Q506.774 516.607 510.202 540.601L510.202 540.601L425.300 554.839Q423.190 543.238 418.840 534.273Q414.489 525.308 408.293 518.980Q402.097 512.652 393.791 509.488Q385.485 506.324 375.466 506.324L375.466 506.324Q357.800 506.324 345.407 515.948Q333.015 525.572 326.555 543.897Q320.095 562.222 320.095 587.535L320.095 587.535Q320.095 612.847 326.555 631.304Q333.015 649.761 345.407 659.649Q357.800 669.537 375.466 669.537L375.466 669.537Q385.749 669.537 393.923 666.241Q402.097 662.945 408.557 656.485Q415.017 650.025 419.367 640.665Q423.718 631.304 425.563 619.439L425.563 619.439L510.466 633.150Q507.038 657.935 496.096 677.579Q485.153 697.222 467.487 711.197Q449.821 725.171 426.223 732.554Q402.624 739.937 374.411 739.937Z M619.003 734.400L526.981 734.400L526.981 341.529L619.003 341.529L619.003 546.138L623.222 546.138L707.597 439.615L812.274 439.615L707.069 568.287L816.493 734.400L710.233 734.400L638.515 621.812L619.003 645.279L619.003 734.400Z" fill="#0E1014"></path>
    <path d="M 660 600 L 720 700 L 870 470" fill="none" stroke="#E8893A" stroke-width="56" stroke-linecap="round" stroke-linejoin="round"></path>
  </g>
</svg>